#!OML:ASF I:\Actors\actors\Patient Classification 1\Patient 1\Session 1\Subject1.ASF
:FULLY-SPECIFIED
:DEGREES
958
root -1.16323 17.5546 7.41161 5.20449 -4.13878 -6.20062
lowerback 3.75471 -1.06643 1.96619
upperback -7.29199 -1.0886 2.23971
thorax -9.82902 -0.581444 1.41718
lowerneck -7.44367 -6.99939 -3.13392
upperneck 32.2246 -11.2556 4.38599
head 12.2982 -4.98324 0.747005
rclavicle -1.00635e-014 1.78906e-015
rhumerus 0.462948 60.8448 -56.0408
rradius 113.468
rwrist 48.3329
rhand -3.78808 -18.3399
rfingers 7.12502
rthumb 21.9574 -47.1137
lclavicle -1.00635e-014 1.78906e-015
lhumerus -39.0728 -40.888 106.395
lradius 106.96
lwrist -23.5838
lhand -41.4957 -64.6234
lfingers 7.12502
lthumb -14.4093 -35.1435
rfemur -0.789631 20.2545 28.1136
rtibia 4.00164
rfoot -11.4118 -17.9138
rtoes 4.97056
lfemur 1.33729 -23.9577 -10.8947
ltibia 3.6886
lfoot -8.81889 37.6534
ltoes 5.28049
959
root -1.17798 17.5517 7.41839 5.15861 -3.95272 -6.19427
lowerback 3.59479 -1.085 2.0364
upperback -7.25711 -1.11492 2.22784
thorax -9.69614 -0.600146 1.36301
lowerneck -7.49411 -7.00523 -3.08782
upperneck 32.1988 -11.2828 4.42828
head 12.2995 -4.98338 0.749608
rclavicle 1.30949e-014 -4.65156e-014
rhumerus 0.956945 60.9097 -55.5676
rradius 113.455
rwrist 48.2662
rhand -3.7377 -18.3149
rfingers 7.12502
rthumb 22.0058 -47.0831
lclavicle 1.30949e-014 -4.65156e-014
lhumerus -39.0334 -41.1135 106.304
lradius 107.016
lwrist -23.3236
lhand -42.231 -65.3353
lfingers 7.12502
lthumb -15.1177 -35.9074
rfemur -0.650798 20.1616 28.1987
rtibia 3.90543
rfoot -11.4287 -17.9956
rtoes 5.01794
lfemur 1.65472 -24.4292 -10.9477
ltibia 3.30641
lfoot -9.00397 37.9561
ltoes 4.84053
960
root -1.18999 17.5487 7.42582 5.12552 -3.78231 -6.18555
lowerback 3.38217 -1.10213 2.13388
upperback -7.20365 -1.14146 2.19495
thorax -9.51253 -0.621766 1.26922
lowerneck -7.57393 -7.01112 -3.03121
upperneck 32.182 -11.3168 4.48239
head 12.3112 -4.98288 0.752543
rclavicle -1.35422e-014 2.70347e-014
rhumerus 1.39137 60.9208 -55.1952
rradius 113.438
rwrist 48.2307
rhand -3.68575 -18.2851
rfingers 7.12502
rthumb 22.0557 -47.0474
lclavicle -1.35422e-014 2.70347e-014
lhumerus -38.9691 -41.3393 106.18
lradius 107.049
lwrist -23.1025
lhand -42.837 -65.8052
lfingers 7.12502
lthumb -15.7014 -36.4223
rfemur -0.508459 20.1086 28.2717
rtibia 3.78339
rfoot -11.4388 -18.1056
rtoes 5.08792
lfemur 2.02027 -24.9927 -11.0356
ltibia 2.87035
lfoot -9.31431 38.3459
ltoes 4.52402
961
root -1.19928 17.5456 7.43349 5.10583 -3.62267 -6.17795
lowerback 3.1441 -1.11741 2.2497
upperback -7.14403 -1.16646 2.15157
thorax -9.30822 -0.644127 1.15303
lowerneck -7.66713 -7.01838 -2.9826
upperneck 32.1688 -11.3564 4.55091
head 12.3292 -4.98363 0.76073
rclavicle -1.32937e-014 1.56046e-014
rhumerus 1.81687 60.9157 -54.8499
rradius 113.435
rwrist 48.186
rhand -3.62449 -18.2713
rfingers 7.12502
rthumb 22.1145 -47.0266
lclavicle -1.32937e-014 1.56046e-014
lhumerus -38.9109 -41.5575 106.058
lradius 107.063
lwrist -22.8893
lhand -43.1333 -65.7902
lfingers 7.12502
lthumb -15.9867 -36.4298
rfemur -0.367867 20.096 28.3355
rtibia 3.64139
rfoot -11.4465 -18.2459
rtoes 5.2007
lfemur 2.4239 -25.6496 -11.1582
ltibia 2.39084
lfoot -9.7503 38.8392
ltoes 4.38931
962
root -1.20576 17.5423 7.44103 5.09973 -3.46912 -6.17707
lowerback 2.91946 -1.13124 2.3711
upperback -7.09889 -1.18826 2.11442
thorax -9.12863 -0.664768 1.04083
lowerneck -7.75516 -7.02935 -2.95561
upperneck 32.1592 -11.3984 4.62087
head 12.3493 -4.98785 0.772854
rclavicle 1.26725e-015 1.19271e-015
rhumerus 1.96664 60.8309 -54.8005
rradius 113.412
rwrist 48.1794
rhand -3.55941 -18.0997
rfingers 7.12502
rthumb 22.177 -46.8476
lclavicle 1.26725e-015 1.19271e-015
lhumerus -38.8993 -41.7483 105.99
lradius 107.068
lwrist -22.6665
lhand -43.0488 -65.2494
lfingers 7.12502
lthumb -15.9053 -35.8826
rfemur -0.234928 20.1117 28.3936
rtibia 3.48626
rfoot -11.454 -18.406
rtoes 5.34262
lfemur 2.84887 -26.3795 -11.3032
ltibia 1.88307
lfoot -10.2737 39.4148
ltoes 4.4166
963
root -1.20941 17.5391 7.44814 5.10713 -3.3155 -6.18785
lowerback 2.76194 -1.14577 2.49519
upperback -7.1009 -1.20621 2.09268
thorax -9.04116 -0.683142 0.946255
lowerneck -7.81725 -7.04371 -2.95698
upperneck 32.1734 -11.4387 4.67821
head 12.3748 -4.99647 0.786059
rclavicle -1.29955e-014 2.28602e-014
rhumerus 1.92876 60.7704 -54.9098
rradius 113.392
rwrist 48.1998
rhand -3.51603 -17.9053
rfingers 7.12502
rthumb 22.2186 -46.6482
lclavicle -1.29955e-014 2.28602e-014
lhumerus -38.9954 -41.8902 106.031
lradius 107.066
lwrist -22.4396
lhand -42.657 -64.3754
lfingers 7.12502
lthumb -15.528 -34.9788
rfemur -0.114757 20.1417 28.4491
rtibia 3.3247
rfoot -11.464 -18.5755
rtoes 5.50511
lfemur 3.27187 -27.1541 -11.4539
ltibia 1.36925
lfoot -10.8338 40.0366
ltoes 4.55993
964
root -1.2105 17.5358 7.45455 5.12566 -3.15861 -6.20694
lowerback 2.67293 -1.16643 2.58956
upperback -7.1426 -1.22851 2.10435
thorax -9.03687 -0.700437 0.907128
lowerneck -7.86409 -7.05667 -2.99227
upperneck 32.2057 -11.4651 4.71266
head 12.4044 -5.00557 0.798743
rclavicle 1.99779e-014 -1.63997e-014
rhumerus 1.87391 60.7836 -54.9809
rradius 113.397
rwrist 48.2031
rhand -3.47058 -17.7568
rfingers 7.12502
rthumb 22.2623 -46.4946
lclavicle 1.99779e-014 -1.63997e-014
lhumerus -39.1617 -41.9647 106.172
lradius 107.049
lwrist -22.2327
lhand -42.1853 -63.4875
lfingers 7.12502
lthumb -15.0737 -34.0563
rfemur -0.010506 20.1793 28.4985
rtibia 3.16399
rfoot -11.4781 -18.7507
rtoes 5.68721
lfemur 3.66726 -27.9376 -11.6008
ltibia 0.879463
lfoot -11.3857 40.6636
ltoes 4.77063
965
root -1.20936 17.5328 7.46001 5.15375 -2.99949 -6.22961
lowerback 2.6462 -1.18821 2.6862
upperback -7.21654 -1.24853 2.11829
thorax -9.10526 -0.717046 0.871565
lowerneck -7.88675 -7.06933 -3.0363
upperneck 32.2382 -11.4908 4.75015
head 12.43 -5.01581 0.815164
rclavicle 1.21259e-014 -1.03368e-014
rhumerus 1.83147 60.8601 -55.0003
rradius 113.434
rwrist 48.1632
rhand -3.39646 -17.6823
rfingers 7.12502
rthumb 22.3334 -46.4116
lclavicle 1.21259e-014 -1.03368e-014
lhumerus -39.3867 -42.0147 106.368
lradius 107.02
lwrist -22.0763
lhand -41.8585 -62.8354
lfingers 7.12502
lthumb -14.7588 -33.3809
rfemur 0.0726916 20.2209 28.537
rtibia 3.01375
rfoot -11.4937 -18.9287
rtoes 5.87598
lfemur 4.01272 -28.6961 -11.737
ltibia 0.439855
lfoot -11.8856 41.2584
ltoes 4.99557
966
root -1.20625 17.5303 7.46432 5.18424 -2.84 -6.25244
lowerback 2.66129 -1.20581 2.76913
upperback -7.30387 -1.26108 2.13967
thorax -9.21289 -0.728941 0.852382
lowerneck -7.87899 -7.08528 -3.08634
upperneck 32.2436 -11.5205 4.7968
head 12.4393 -5.02898 0.837051
rclavicle -2.39039e-014 3.52843e-014
rhumerus 1.77812 60.9191 -54.9873
rradius 113.48
rwrist 48.0787
rhand -3.29183 -17.4352
rfingers 7.12502
rthumb 22.4339 -46.1524
lclavicle -2.39039e-014 3.52843e-014
lhumerus -39.6313 -42.0557 106.604
lradius 106.978
lwrist -21.9942
lhand -41.7266 -62.4247
lfingers 7.12502
lthumb -14.6318 -32.9609
rfemur 0.136946 20.2642 28.5643
rtibia 2.88336
rfoot -11.5093 -19.107
rtoes 6.03997
lfemur 4.3005 -29.3995 -11.8602
ltibia 0.0666569
lfoot -12.2995 41.7875
ltoes 5.19016
